<svg xmlns="http://www.w3.org/2000/svg">
    <symbol id="logo" viewBox="0 0 205.5 20">
        <path d="M11.1.6l-6.4,8H3.1V.6H0V20H3.1V11.3H4.8L11.2,20h3.7L7.2,9.8,14.7.6ZM201.4,2.2a.2.2,0,0,0-.2-.2c0-.1-.2-.2-.4-.2l-.5-.2a1,1,0,0,1-.5-.8.6.6,0,0,1,.1-.4l.4-.3h1.2l.4.3c0,.2.1.3.1.5h-.6l-.2-.3h-.7c-.1,0-.1.1-.1.2l.2.3.4.2c.3.1.6.2.7.4a.5.5,0,0,1,.3.5.6.6,0,0,1-.3.6,1.1,1.1,0,0,1-.8.3l-.6-.2c-.2,0-.3-.2-.4-.3s-.2-.3-.2-.5h.6c0,.3.2.5.6.5h.4c0-.1.1-.1.1-.3ZM203.2,0l.8,2.2.7-2.2h.8V3h-.6V.8L204.2,3h-.4L203,.8V3h-.6V0ZM36.6.6H31.9c-.8,0-1,.3-1.2,1L26.8,16h-.4L22.5,1.6A1.2,1.2,0,0,0,21.3.5H16.4V20h3V3.3h.5l4.5,15.8c.2.8.3.9,1,.9h2c.8,0,.9-.1,1.1-.9L33,3.5h.4V20h3.2V.6ZM54.9,13.3H51.8c-.1,2.9-.4,3.5-.7,3.7s-.4.4-1.4.3H45c-.9,0-1.1-.1-1.3-.3s-.7-1.1-.7-6.7.4-6.4.7-6.7.4-.3,1.3-.3h4.7c1,0,1.2.1,1.4.3s.6,1,.7,3.4h3.1c-.1-3.3-.6-4.6-1.7-5.6S51.9.6,50.1.6H44.7c-1.8,0-2.5.2-3.1.8s-1.8,2.4-1.8,8.9.7,8,1.8,8.9,1.3.8,3.1.8h5.4c1.8,0,2.5-.2,3.1-.8s1.5-2,1.7-5.9ZM68.4.6h0c-1.8,0-2.5.2-3.2.8s-1.7,2.4-1.7,8.9.7,8,1.7,8.9,1.4.8,3.2.8h5.5c1.9,0,2.5-.2,3.2-.8s1.7-2.4,1.7-8.9-.6-7.9-1.7-8.9S75.8.6,73.9.6Zm-1.7,9.7h0c0-5.6.3-6.4.7-6.7s.4-.3,1.3-.3h4.9c.9,0,1.2.1,1.4.3s.7,1.1.7,6.7-.4,6.5-.7,6.7a1.6,1.6,0,0,1-1.4.3H68.7c-.9,0-1.1-.1-1.3-.3S66.7,15.9,66.7,10.3ZM84.8,20h0V8.4a5.7,5.7,0,0,1,2.8-.8h1.9c1,0,1.2.1,1.5.4s.4.7.4,1.5V20h2.9V9.3c0-2.1-.3-2.8-.9-3.4A2.7,2.7,0,0,0,90.9,5H88.5c-1.2,0-1.9.3-3.7,1.9V5.1H81.9V20ZM97.7.6h0V20h8.4c2.4,0,3.6-.4,4.7-1.4s1.9-3.5,1.9-8.3-.6-7.1-1.9-8.3S108.5.6,106.1.6Zm11.8,9.7h0c0,4.4-.3,5.7-1,6.4s-1.2.6-2.4.6h-5.3V3.3h5.3a3,3,0,0,1,2.4.6c.7.7,1,2,1,6.4Zm17.8,3.2h0c.2,0,.3-.1.3-.4v-.7c0-4.4-.3-5.5-1.2-6.5s-1.5-.8-3-.8h-4.1a3.4,3.4,0,0,0-2.9.8c-1,1-1.3,2.1-1.3,6.6s.3,5.7,1.3,6.6a4.4,4.4,0,0,0,2.9.9h4.9a4,4,0,0,0,2.4-.7c.7-.8,1-1.6,1-3.9h-2.8c0,1.3-.1,1.6-.3,1.8s-.3.3-1,.3h-3.8c-.9,0-1.1-.1-1.3-.3s-.4-.8-.4-3.7Zm-8.9-5.6h0c.2-.2.4-.3,1.3-.3h3.4c.8,0,1.1.1,1.3.3s.4.8.4,3.3H118c0-2.6.1-3.1.4-3.3Zm12.1-2.8h0V20h2.8V8.4a5.7,5.7,0,0,1,2.8-.8h1.4c1,0,1.3.1,1.6.4a2.4,2.4,0,0,1,.3,1.5V20h2.9V8.4a5.7,5.7,0,0,1,2.8-.8h1.4c1,0,1.2.1,1.5.4s.4.7.4,1.5V20h2.9V9.3c0-2.1-.3-2.8-.9-3.4a2.7,2.7,0,0,0-2.5-.9h-1.8c-1.3,0-1.9.3-4,2a3,3,0,0,0-.7-1.1,2.7,2.7,0,0,0-2.5-.9h-1.8c-1.3,0-1.9.3-3.8,1.9V5.1Zm24,4.5h2.8a5.8,5.8,0,0,1,.3-1.9,1.7,1.7,0,0,1,1.2-.2h3a2,2,0,0,1,1.3.2c.2.3.3.7.3,2.5v1.6a8.9,8.9,0,0,0-3.6-.4c-3.7,0-4.3.4-5,1.1s-.9,1.7-.9,3.5a5,5,0,0,0,.9,3.3c.6.6,1.3.7,2.7.7h2.3c1.3,0,1.9-.3,3.6-1.8V20h2.9V9.9c0-2.6-.2-3.3-.9-4s-1.2-.8-2.9-.8h-4.6a2.7,2.7,0,0,0-2.5.8c-.6.6-.9,1.4-.9,3.7Zm5.8,8h-2.1c-.7,0-1-.1-1.2-.3s-.3-.7-.3-1.8.1-1.3.4-1.6.6-.3,2.5-.3h3.8v3.1a5.6,5.6,0,0,1-3.1.9ZM172.4,20h0V8.4a5.7,5.7,0,0,1,2.8-.8h1.9c1,0,1.3.1,1.6.4s.4.7.4,1.5V20h2.8V9.3c0-2.1-.3-2.8-.8-3.4a3.1,3.1,0,0,0-2.6-.9h-2.4c-1.2,0-1.8.3-3.7,1.9V5.1h-2.9V20Zm25.2,0h0V.1h-2.8V6.9C192.9,5.3,192.2,5,191,5h-2c-1.6,0-2.4.3-3,1s-1.2,1.9-1.2,6.5.4,5.8,1.2,6.6a4,4,0,0,0,3,.9h2c1.3,0,1.9-.3,3.8-1.8V20Zm-5.7-2.5h-2.2a2.6,2.6,0,0,1-1.5-.4c-.4-.4-.5-1.2-.5-4.6s.1-4.1.5-4.5.6-.4,1.5-.4H192a5.7,5.7,0,0,1,2.8.8v8.2a7.5,7.5,0,0,1-2.9.9Z"/>
    </symbol>
    <symbol id="logo-mobile" viewBox="0 0 83 41">
        <path d="M16,0,7.5,10.7H5.4V0H1.3V25.9H5.4V14.3H7.7l8.5,11.6h4.9L10.9,12.3,20.8,0ZM78.6,2.4c0-.2,0-.3-.1-.3L78,1.9l-.5-.2a.9.9,0,0,1-.6-.8c0-.2.1-.3.2-.5l.4-.3h1.2a.8.8,0,0,1,.4.4.8.8,0,0,1,.2.5h-.7c0-.2,0-.3-.1-.4h-.8a.4.4,0,0,0-.1.3c0,.1,0,.2.1.2l.5.2.8.4a.9.9,0,0,1,.3.7A.9.9,0,0,1,79,3a1.3,1.3,0,0,1-.9.2h-.6a1,1,0,0,1-.5-.4.8.8,0,0,1-.2-.5h.7c0,.4.2.5.6.5h.4c.1,0,.1-.1.1-.2ZM80.5,0l.8,2.3L82.2,0H83V3.2h-.7V.8l-.8,2.4h-.5L80.3.8V3.2h-.6V0ZM2.8,30.1h0c-1.1,0-1.5.1-1.8.4s-1,1.4-1,5,.4,4.5,1,5,.7.5,1.8.5h3c1.1,0,1.5-.1,1.8-.5s1-1.3,1-5-.3-4.4-1-5-.7-.4-1.8-.4Zm-1,5.4h0c0-3.1.2-3.6.4-3.7s.2-.2.7-.2H5.7c.5,0,.7,0,.8.2s.4.6.4,3.7-.3,3.7-.4,3.8a1.3,1.3,0,0,1-.8.2H2.9c-.5,0-.6-.1-.7-.2s-.4-.6-.4-3.8ZM12,41h0V34.5a3,3,0,0,1,1.6-.5h1a1.4,1.4,0,0,1,.9.2,1.7,1.7,0,0,1,.2.9V41h1.6V35c0-1.2-.1-1.6-.5-2a2.2,2.2,0,0,0-1.4-.5H14.1c-.7,0-1.1.2-2.1,1.1v-1H10.4V41Zm7.2-10.9h0V41H24a3.3,3.3,0,0,0,2.6-.8c.6-.6,1.1-2,1.1-4.7s-.4-4-1.1-4.6a3,3,0,0,0-2.6-.8Zm6.7,5.4h0c0,2.5-.2,3.2-.6,3.6a1.5,1.5,0,0,1-1.3.4H21V31.6h3a1.6,1.6,0,0,1,1.3.3c.4.4.6,1.1.6,3.6Zm10,1.8h0c.1,0,.2,0,.2-.2v-.4c0-2.5-.2-3.1-.7-3.7s-.9-.4-1.7-.4H31.4a2.2,2.2,0,0,0-1.6.4c-.6.6-.8,1.2-.8,3.8s.2,3.2.8,3.7a2.2,2.2,0,0,0,1.6.5h2.7a2.3,2.3,0,0,0,1.4-.4,2.9,2.9,0,0,0,.6-2.2H34.5c0,.7-.1.9-.2,1s-.2.2-.6.2H31.6c-.5,0-.6-.1-.7-.2s-.2-.4-.2-2.1Zm-5-3.1h0c.1-.1.2-.2.7-.2h1.9a1.3,1.3,0,0,1,.8.2c.1.1.2.4.2,1.8H30.7C30.7,34.6,30.7,34.3,30.9,34.2Zm6.8-1.6h0V41h1.6V34.5a2.7,2.7,0,0,1,1.5-.5h.8c.6,0,.8.1.9.2a1.5,1.5,0,0,1,.2.9V41h1.6V34.5a3,3,0,0,1,1.6-.5h.8c.6,0,.7.1.8.2a1.1,1.1,0,0,1,.3.9V41h1.6V35a2.8,2.8,0,0,0-.5-2,2.4,2.4,0,0,0-1.4-.5h-1c-.8,0-1.1.2-2.3,1.2a1.6,1.6,0,0,0-.4-.7,2.2,2.2,0,0,0-1.4-.5h-1c-.7,0-1.1.2-2.1,1.1v-1Zm13.5,2.5h1.6a3.4,3.4,0,0,1,.1-1l.7-.2h1.7l.7.2c.1.1.2.4.2,1.4v.9a6.9,6.9,0,0,0-2-.3c-2.1,0-2.4.3-2.8.7s-.5.9-.5,1.9a2.5,2.5,0,0,0,.5,1.9c.3.3.7.4,1.5.4h1.3c.7,0,1-.2,2-1v1h1.6V35.3c0-1.5-.1-1.9-.5-2.3a2.2,2.2,0,0,0-1.6-.4H53.1a1.8,1.8,0,0,0-1.4.4,3,3,0,0,0-.5,2.1Zm3.3,4.5H52.6a2,2,0,0,1-.2-1.1c0-.6.1-.7.3-.9h3.5v1.7a3.4,3.4,0,0,1-1.7.5ZM61.3,41h0V34.5a2.7,2.7,0,0,1,1.5-.5h1.1a1.4,1.4,0,0,1,.9.2c.2.2.2.4.2.9V41h1.6V35a3.7,3.7,0,0,0-.4-2,2.7,2.7,0,0,0-1.5-.5H63.3c-.6,0-1,.2-2,1.1v-1H59.6V41Zm14.1,0h0V29.8H73.9v3.8c-1.1-.9-1.5-1.1-2.2-1.1H70.6a1.9,1.9,0,0,0-1.7.6c-.3.4-.7,1.1-.7,3.7s.3,3.2.7,3.7a2.2,2.2,0,0,0,1.7.5h1.1c.8,0,1.1-.2,2.2-1v1Zm-3.2-1.4H71a1.6,1.6,0,0,1-.9-.3c-.2-.2-.2-.6-.2-2.5s0-2.3.2-2.6.4-.2.9-.2h1.3a3.3,3.3,0,0,1,1.6.5v4.6a4.8,4.8,0,0,1-1.7.5ZM50.9,0H44.6c-1,0-1.3.4-1.6,1.4L37.8,20.5h-.5L32.1,1.4A1.4,1.4,0,0,0,30.5,0H24V25.9h4V3.6h.7l5.9,21.1c.3,1,.4,1.2,1.4,1.2h2.6c1.1,0,1.2-.2,1.5-1.2l6-20.8h.5v22h4.3V0ZM76.1,16.9H72c-.2,3.9-.6,4.7-1,5a2.2,2.2,0,0,1-1.8.4H62.9c-1.2,0-1.5-.2-1.7-.4s-1-1.5-1-9,.6-8.5,1-8.9.5-.4,1.7-.4h6.3c1.3,0,1.6.1,1.8.4s.8,1.3,1,4.5h4.1c-.1-4.3-.8-6.1-2.3-7.4S72.1,0,69.7,0H62.5c-2.4,0-3.3.3-4.1,1.1S56,4.3,56,12.9s.9,10.7,2.4,11.9,1.7,1.1,4.1,1.1h7.2c2.4,0,3.3-.3,4.1-1.1S75.8,22.1,76.1,16.9Z"/>
    </symbol>
    <symbol id="home" viewBox="0 0 28 28">
        <path d="M14,2,28,15.2H23.3V26H15.5V19.3h-3V26H4.7V15.2H0L14,2Zm4,14.8v6.7h2.9V13.3h1.8L14,5.5,5.3,13.3H7.1V23.5H10V16.8Z"/>
    </symbol>
    <symbol id="3lines" viewBox="0 0 28 28">
        <g transform="translate(0 5)">
            <polygon points="0 0 28 0 28 3 0 3 0 0"/>
            <polygon points="0 15.4 28 15.4 28 18.4 0 18.4 0 15.4"/>
            <polygon points="0 7.7 28 7.7 28 10.7 0 10.7 0 7.7"/>
        </g>
    </symbol>
    <symbol id="arrow-menu" viewBox="0 0 16.5 14.6">
        <path d="M16.5,6.6,10.4.5A1.2,1.2,0,0,0,8.7.5a1.3,1.3,0,0,0,0,1.8l3.9,3.9H1.6A1.2,1.2,0,0,0,.4,7.5,1.2,1.2,0,0,0,1.6,8.7h11L8.7,12.6a1.3,1.3,0,0,0,0,1.8,1.2,1.2,0,0,0,1.7,0l6.1-6.1A1.2,1.2,0,0,0,16.5,6.6Z" transform="translate(-0.4 -0.1)"/>
    </symbol>
    <symbol id="arrow" viewBox="0 0 11 8.1">
        <polygon points="0 8.1 5.5 0 11 8.1 0 8.1"/>
    </symbol>
    <symbol id="close" viewBox="0 0 11.2 11.2">
        <path d="M9.1.4,5.6,3.8,2.2.4A1.3,1.3,0,0,0,.4,2.2L3.8,5.6.4,9.1C-.8,10.2,1,12,2.2,10.8L5.6,7.4l3.5,3.4a1.2,1.2,0,1,0,1.7-1.7L7.4,5.6l3.4-3.4C12,1,10.2-.8,9.1.4Z"/>
    </symbol>
    <symbol id="search" viewBox="0 0 28 28">
        <path d="M11.4,2.5c4.9,0,8.8,4,8.8,8.8c0,2-0.7,3.8-1.8,5.3l6.5,6.5c0.5,0.5,0.5,1.4,0,2c-0.5,0.5-1.4,0.5-2,0l-6.5-6.5 c-3.5,2.4-8.3,2-11.3-1c-1.6-1.6-2.6-3.8-2.6-6.3C2.6,6.4,6.5,2.5,11.4,2.5z M11.4,5c-3.5,0-6.3,2.8-6.3,6.3c0,1.8,0.7,3.3,1.9,4.5	c2.5,2.5,6.5,2.5,9,0c1.1-1.1,1.9-2.7,1.9-4.5C17.8,7.8,14.9,5,11.4,5z"/>
    </symbol>
    <symbol id="progress" viewBox="0 0 28 28">
        <path d="M19.3,1.8c1.8-.2,1.9-.1,2.7,1.7s.5,1.6,2.4,2.5,2,.9,1.8,2.9-.5,1.6.6,3.1,1.6,2,.3,3.7-1.2,1.2-1,3,.3,2.5-1.6,3.3-1.7.5-2.5,2.4-.9,2-2.9,1.8-1.6-.4-3.3.8-1.8,1.3-3.5.1-1.3-1.2-3.4-.9-2.1.1-2.9-1.8-.5-1.5-2.3-2.3-2.1-1-1.9-3.2.3-1.6-.8-3.1S-.3,14,.9,12.4s1.2-1.3.9-3.4S1.6,6.8,3.4,6.1,5.1,5.6,6,3.6s.9-2,3.1-1.8,1.7.3,3.3-1,1.7-1.1,3.5.3,1.4.9,3.4.7ZM10.1,15.1l2,1.8a1.1,1.1,0,0,0,1.7,0l4.1-4.1a1.1,1.1,0,0,0,0-1.7,1.3,1.3,0,0,0-1.8,0l-3.2,3.2-1-1a1.3,1.3,0,1,0-1.8,1.8Zm11-8.2A10.2,10.2,0,0,0,8,5.9L9.8,7.7a7.6,7.6,0,0,1,9.5,1,7.4,7.4,0,0,1,1,9.5L22.1,20A10.2,10.2,0,0,0,21.1,6.9ZM19.9,22.1l-1.7-1.8a8,8,0,0,1-2.5,1.1v2.5A9.3,9.3,0,0,0,19.9,22.1ZM12.6,24V21.5a11.7,11.7,0,0,1-2.6-1L8.2,22.3A9.9,9.9,0,0,0,12.6,24ZM6,20.2l1.8-1.8a8.3,8.3,0,0,1-1.2-2.7H4.1A9.1,9.1,0,0,0,6,20.2ZM4,12.7H6.5A7,7,0,0,1,7.7,9.9L5.9,8.1A9.4,9.4,0,0,0,4,12.7Z"/>
    </symbol>
    <symbol id="resources" viewBox="0 0 28 28">
        <path d="M17,21.2c.1-.2.2-.3.2-.5,1-1.8,2.2-2.2,3-3.8A7.1,7.1,0,0,0,13.9,7a7,7,0,0,0-6.3,9.9c.8,1.6,2,2,2.9,3.8.1.2.2.3.2.4H13V17l-2.8-3.8a1.1,1.1,0,0,1,.2-1.4,1.1,1.1,0,0,1,1.4.2l2.1,2.9L16,12a.9.9,0,0,1,1.4-.2,1.1,1.1,0,0,1,.2,1.4l-2.8,3.9V21h1.8a.5.5,0,0,1,.4.2Zm-5.9,2.1h5.5a.7.7,0,0,1,.7.7h0a.7.7,0,0,1-.7.7H11.1a.7.7,0,0,1-.7-.7h0A.7.7,0,0,1,11.1,23.3ZM21.7,5V2.4a9.5,9.5,0,0,0-1.7-1L18,2.8l-1.9-.5L15,0H13L11.9,2.3,10,2.8,7.9,1.4l-1.8,1A24.6,24.6,0,0,1,6.3,5L4.9,6.3H2.4a9.5,9.5,0,0,0-1,1.7L2.8,10a10.5,10.5,0,0,0-.5,1.9L0,13v2l2.3,1.1A10.5,10.5,0,0,0,2.8,18L1.4,20.1a16.2,16.2,0,0,0,1,1.8L5,21.7l1.3,1.4v2.5a9.5,9.5,0,0,0,1.7,1L10,25.2l1,.3h5.6l1.4-.4,2.1,1.4a9.5,9.5,0,0,0,1.7-1c0-.3-.1-2.5-.1-2.5L23,21.7l2.6.2a16.2,16.2,0,0,0,1-1.8L25.2,18a10.5,10.5,0,0,0,.5-1.9L28,15V13l-2.3-1.1a10.5,10.5,0,0,0-.5-1.9l1.4-2.1a9.5,9.5,0,0,0-1-1.7H23L21.7,4.9ZM12.5,26.9,13,28h2l.5-1.1ZM11,22.4v.7A9.6,9.6,0,1,1,23.6,14a9.7,9.7,0,0,1-6.8,9.2v-.8H11Z"/>
    </symbol>
    <symbol id="ce" viewBox="0 0 28 28">
        <path d="M19.3,1.8c1.8-.2,1.9-.1,2.7,1.7s.5,1.6,2.4,2.5,2,.9,1.8,2.9-.5,1.6.6,3.1,1.6,2,.3,3.7-1.2,1.2-1,3,.4,2.5-1.6,3.3-1.7.5-2.5,2.4-.7,1.8-1.4,1.9V16.6H7.4v9.7c-.7-.1-.9-.6-1.4-1.9s-.5-1.6-2.3-2.3-2.1-1-1.9-3.2.3-1.6-.8-3.1S-.3,14,.9,12.4s1.2-1.3.9-3.4S1.6,6.8,3.4,6.1,5.1,5.6,6,3.6s.9-2,3.1-1.8,1.6.3,3.3-1,1.7-1.1,3.5.3,1.4.9,3.4.7Zm.8,24.5h-1c-2-.3-1.6-.4-3.3.8s-1.8,1.3-3.5.1-1.3-1.2-3.4-.9h-1l6-3.5ZM13.8,10.7V9.3H8.7a1.3,1.3,0,0,0-1.3,1.3v3.8a1.3,1.3,0,0,0,1.3,1.3h5.1V14.3h-5V10.7Zm6.8-1.4H14.7v6.4h5.9V14.3H16.1V13.2h3.6V11.8H16.1V10.7h4.5V9.3Z"/>
    </symbol>
    <symbol id="forms" viewBox="0 0 28 28">
        <path d="M14.1,21.5h5.2v1.3H14.1ZM9.7,18.4h1.6V16.8H9.7Zm0-6.1h1.6V10.7H9.7Zm1.6,12.1V22.8H9.7v1.6ZM6.6,22.8a2.3,2.3,0,0,1-.7-.7A11.3,11.3,0,0,1,2.5,14,11.2,11.2,0,0,1,5.9,5.9,11.2,11.2,0,0,1,14,2.5a11.2,11.2,0,0,1,8.1,3.4A11.2,11.2,0,0,1,25.5,14a11.3,11.3,0,0,1-3.4,8.1,2.3,2.3,0,0,1-.7.7V9.1l-2-2H6.6V22.8Zm7.5,2.9V24.4h2.6v1.3Zm-1.5,0H8.4V21.5h4.2Zm5.1-6H14.1V18.4h3.6Zm-5.1-4.2v4.2H8.4V15.5Zm6.7,1.3H14.1V15.5h5.2Zm-3.4-3.2H14.1V12.3h1.8ZM12.6,9.4v4.2H8.4V9.4Zm6.7,1.3H14.1V9.4h5.2Zm4.6,13.2A14,14,0,1,0,14,28,14,14,0,0,0,23.9,23.9Z"/>
    </symbol>
    <symbol id="my-employees" viewBox="0 0 28 28">
        <path d="M15.2,2.6a11.5,11.5,0,0,1,7.1,3.5,11.3,11.3,0,0,1,2.3,3.4,3.2,3.2,0,0,1,3.2,2.3,13.6,13.6,0,0,0-3.6-7.4A13.7,13.7,0,0,0,15.5.1,13.8,13.8,0,0,0,3.8,4.4L1.7,2.6V9L7.8,7.7,5.7,6a11.6,11.6,0,0,1,9.5-3.4ZM6.6,16.8A1.6,1.6,0,0,0,5,15.1a3,3,0,0,1-3.4,0A1.6,1.6,0,0,0,0,16.8v1.5H6.6Zm10.3-1.9a4.8,4.8,0,0,1-5.8,0,2.8,2.8,0,0,0-2.8,2.8v.7H19.7v-.7a2.8,2.8,0,0,0-2.8-2.8Zm6.1.2a1.7,1.7,0,0,0-1.7,1.7v1.5H28V16.8a1.6,1.6,0,0,0-1.6-1.7A3,3,0,0,1,23,15.1ZM10.5,25A12.4,12.4,0,0,1,4,19.8H1.2a13.9,13.9,0,0,0,8.6,7.5A13.3,13.3,0,0,0,22,25.4l1.7,2.2L25,21.4H18.8l1.7,2.1a11.8,11.8,0,0,1-10,1.5Z"/>
        <circle cx="3.3" cy="12.8" r="2"/>
        <circle cx="24.6" cy="12.8" r="2"/>
        <circle cx="14" cy="11.7" r="2.8"/>
    </symbol>
    <symbol id="map" viewBox="0 0 28 28">
        <path d="M5.1,13.1a1.3,1.3,0,0,1,1.3,1.3,1.2,1.2,0,0,1-1.3,1.2H2.6a12.8,12.8,0,0,0,2,5,1.3,1.3,0,0,1-.3,1.8,1.3,1.3,0,0,1-1.7-.3A14,14,0,1,1,28,14a14.2,14.2,0,0,1-2.9,8.6,1.4,1.4,0,0,1-1.8.2,1.4,1.4,0,0,1-.2-1.8,11.4,11.4,0,0,0,2.3-5.4H23.1a1.2,1.2,0,0,1-1.3-1.2,1.3,1.3,0,0,1,1.3-1.3h2.4a11.6,11.6,0,0,0-2.3-6l-.6.6a1.3,1.3,0,0,1-1.8-1.8l.7-.7a11.2,11.2,0,0,0-6.1-2.6V5.4a1.3,1.3,0,0,1-2.6,0V2.6A10.5,10.5,0,0,0,6.7,5.2l.8.8a1.3,1.3,0,0,1,0,1.8,1.2,1.2,0,0,1-1.7,0l-.9-.9a12.4,12.4,0,0,0-2.4,6.2Zm6.9-.4,5.6-6.1a.6.6,0,0,1,1,.7L16.1,15c0,.1-.1.2-.1.3l-5.5,6.1a.6.6,0,0,1-1.1-.6L11.9,13C11.9,12.9,12,12.8,12,12.7Zm4.5-3-3,3.3,1.6.9Z"/>
    </symbol>
    <symbol id="gbsc" viewBox="0 0 28 28">
        <path d="M14,0A14,14,0,0,1,28,14a11.2,11.2,0,0,1-.4,3.2,7.9,7.9,0,0,0-4.4-4.4h2.2a11,11,0,0,0-2.2-5.6L21.5,8a31.1,31.1,0,0,1,.7,4.4,7.1,7.1,0,0,0-2.5-.2,18.6,18.6,0,0,0-.6-3.4,25.3,25.3,0,0,1-3.8.7v3.3h1.9a7.7,7.7,0,0,0-4.4,4.6V15.3H8.6c.1,1.1.2,2.2.4,3.3a22.5,22.5,0,0,1,3.6-.6,5.4,5.4,0,0,0-.3,2.5L9.8,21a7.3,7.3,0,0,0,3,4.1V22.9a8.1,8.1,0,0,0,4.7,4.7A13.9,13.9,0,0,1,14,28,14,14,0,1,1,14,0Zm1.7,16.4v6.7c0,.2,0,.3.1.4s.2.1.3,0l1.7-4.8c.2-.4.3-.4.7-.4,2.2,0,4.4-.1,6.5,0,.3,0,.2-.1.2-.5v-.3c-.1-.3-.3-.5-.6-.4H20.3l-.8-.9a.8.8,0,0,0-.7-.3H16.2c-.3.1-.5.3-.5.5ZM17.3,24h7.2a.5.5,0,0,0,.5-.3l1.5-4.2a.4.4,0,0,0-.4-.4H18.8l-.3.2L17,23.5a.3.3,0,0,0,.3.5ZM4.5,20.4l2.2-1a26.5,26.5,0,0,1-.6-4.2H2.6a10.2,10.2,0,0,0,1.9,5.2Zm2.9,1.4a3.8,3.8,0,0,0-1.3.6,14.6,14.6,0,0,0,2.4,1.7A16.3,16.3,0,0,1,7.4,21.8Zm-4.8-9H6.1a22.1,22.1,0,0,1,.7-4.7l-2-.9a11.1,11.1,0,0,0-2.2,5.5Zm6,0h4.1V9.4a14.1,14.1,0,0,1-3.5-.5,23.2,23.2,0,0,0-.6,3.8Zm6.6-10V6.9a10.6,10.6,0,0,0,3.1-.5C17.7,5.1,16.7,3.4,15.2,2.8ZM12.7,6.9V3A7.9,7.9,0,0,0,10,6.5,12.6,12.6,0,0,0,12.7,6.9Zm7.2-2.8.8,1.5.8-.3a9.5,9.5,0,0,0-1.6-1.2ZM7.6,5.7l.9-1.8a9,9,0,0,0-2,1.4Z"/>
    </symbol>
    <symbol id="linkother" viewBox="0 0 28 28">
        <path d="M19.3,24.2a1.3,1.3,0,0,1,1.2,2.2A14.1,14.1,0,0,1,4.1,23.9,14,14,0,0,1,23.9,4.1,14.1,14.1,0,0,1,28,14a1.3,1.3,0,0,1-2.5,0,11.6,11.6,0,0,0-3.4-8.2,11.7,11.7,0,0,0-16.3,0,11.7,11.7,0,0,0,0,16.3A11.6,11.6,0,0,0,19.3,24.2Z"/>
        <path d="M14.3,18.2l-1.5,1.5a3.5,3.5,0,0,1-5-5l2.7-2.6a3.4,3.4,0,0,1,4.9,0L14,13.5a1.5,1.5,0,0,0-2.1,0L9.2,16.2a1.5,1.5,0,0,0,2.1,2.1l1.6-1.6,1.4,1.5ZM13.1,9.4l1.6-1.6a3.7,3.7,0,0,1,5,0,3.7,3.7,0,0,1,0,5L17,15.5a3.5,3.5,0,0,1-5,0l1.4-1.4a1.4,1.4,0,0,0,2.1,0l2.7-2.7a1.5,1.5,0,0,0-2.1-2.1l-1.5,1.5L13.1,9.4Z"/>
        <circle cx="25.4" cy="19.8" r="1.2"/>
        <circle cx="22.3" cy="19.8" r="1.2"/>
        <circle cx="19.1" cy="19.8" r="1.2"/>
    </symbol>
    <symbol id="instructor-led" viewBox="0 0 51 38.2">
        <path d="M8.1,29.5v8.6H5.6V29.5Zm36.8-9.7H25.2V22H17.6A7.4,7.4,0,0,0,12.8,8.9a7.4,7.4,0,0,0-7.5,7.4A7.7,7.7,0,0,0,7.9,22H4.4A4.4,4.4,0,0,0,0,26.4V38.2H2.5V26.4a1.8,1.8,0,0,1,1.9-1.9H32.5a1.9,1.9,0,0,1,1.9,1.9,2,2,0,0,1-1.9,1.9H19.8l-1.8.8v9h2.5V30.8h4.7v1.1H44.9V19.8Zm0-4.5H25.2v2.1H44.9Zm0-4.5H25.2v2.1H44.9Zm0-4.5H25.2V8.4H44.9ZM12.8,11.4a5,5,0,1,1-5,4.9A4.9,4.9,0,0,1,12.8,11.4ZM3.2,19.1a1.3,1.3,0,1,1-2.5,0V6.3A6.3,6.3,0,0,1,7,0H44.7A6.3,6.3,0,0,1,51,6.3V30.7a6.4,6.4,0,0,1-6.3,6.4H40.4a1.3,1.3,0,1,1,0-2.5h4.3a3.9,3.9,0,0,0,3.8-3.9V6.3a3.8,3.8,0,0,0-3.8-3.8H7A3.8,3.8,0,0,0,3.2,6.3Z"/>
    </symbol>
    <symbol id="online" viewBox="0 0 48.8 37.4">
        <path d="M7.5,6l4.8,3.2L7.5,12.5Zm34.9,4.4H22.7v2.1H42.4ZM8.4,24.9H46.3V5.4a2.9,2.9,0,0,0-2.9-2.9H19A1.3,1.3,0,1,1,19,0H43.4a5.4,5.4,0,0,1,5.4,5.4v20a5.4,5.4,0,0,1-5.4,5.4H28.6v4.1h7.2a1.3,1.3,0,0,1,0,2.5H18.9a1.3,1.3,0,1,1,0-2.5h7.2V30.8H11.3a5.4,5.4,0,0,1-5.4-5.4V21.3a1.3,1.3,0,1,1,2.5,0Zm34-5.5H22.7v2.1H42.4ZM9.2,0A9.2,9.2,0,1,1,0,9.2,9.2,9.2,0,0,1,9.2,0Zm0,2.5a6.7,6.7,0,1,0,6.7,6.7A6.7,6.7,0,0,0,9.2,2.5ZM42.4,14.9H22.7V17H42.4Zm0-9H22.7V8H42.4Z"/>
    </symbol>
    <symbol id="paths" viewBox="0 0 51.5 38.2">
        <path d="M24.1,16.2c4.6,0,5.5,4,4.3,7.7s-3.5,7.7-4.3,7.7-3.2-4.2-4.3-7.7S19.5,16.2,24.1,16.2Zm8.7,8.7a6.7,6.7,0,0,1,2.9,5.3A7.1,7.1,0,0,1,32.1,36a14.5,14.5,0,0,1-8,2.2,14.5,14.5,0,0,1-8-2.2,6.9,6.9,0,0,1-3.5-5.8,7,7,0,0,1,3.5-5.8,1.3,1.3,0,0,1,1.4,2.1,4.5,4.5,0,0,0-2.4,3.7A4.8,4.8,0,0,0,17.5,34a13.1,13.1,0,0,0,6.6,1.7A12.9,12.9,0,0,0,30.7,34a4.7,4.7,0,0,0,2.5-3.8c0-1.8-1.5-3.2-3-4a1.3,1.3,0,0,1-.3-2.1l7.7-7c-1.4-.9-2.6-2.4-2.2-4.2L12.2,7.2A8.3,8.3,0,0,1,6.7,9.1C3,9.1,0,7,0,4.5S3,0,6.7,0s6.8,2,6.8,4.5v.4l23.3,5.8a10.2,10.2,0,0,1,6.6-2.2c4.5,0,8.1,2.3,8.1,5.1s-3.6,5-8.1,5a11.5,11.5,0,0,1-3.3-.4l-7.3,6.7Zm-8.7-5.5a1.8,1.8,0,0,0-1.8,1.8,1.8,1.8,0,1,0,3.6,0A1.8,1.8,0,0,0,24.1,19.4Z"/>
    </symbol>
</svg>